<svg width="42" height="42" viewBox="0 0 42 42" fill="none" xmlns="http://www.w3.org/2000/svg">
<g clip-path="url(#clip0_695_1774)">
<path fill-rule="evenodd" clip-rule="evenodd" d="M21.9001 0.0183603L21.6871 0.0100994L21.655 0.00918189C21.4544 0.00321493 21.2359 0 20.9996 0C20.7673 0 20.5516 0.00275269 20.3528 0.00871963L20.2638 0.044064V0.0436052L20.1417 0.0927189C19.6437 0.295136 19.1603 0.518209 18.694 0.761934C18.2235 1.0075 17.7636 1.27601 17.317 1.56656C16.8227 1.88831 16.3472 2.23302 15.8932 2.59976C15.4416 2.9642 15.0119 3.35022 14.6062 3.75597H14.6066C14.3083 4.05431 14.0279 4.35633 13.7644 4.66111C13.4945 4.97368 13.2374 5.29406 12.9951 5.62041C12.6669 6.06196 12.3631 6.51684 12.084 6.98133C11.8329 7.39993 11.6012 7.8282 11.3891 8.26423C11.9922 8.12608 12.6036 8.01726 13.2209 7.93924C13.953 7.84653 14.6948 7.79651 15.442 7.79148C15.6472 7.50276 15.8661 7.21907 16.0989 6.94143C16.3517 6.63941 16.6221 6.34425 16.9085 6.05783L16.9081 6.05738C17.1004 5.86505 17.2995 5.67733 17.5043 5.4951C17.7071 5.31472 17.9147 5.14122 18.1257 4.9746C18.2832 4.85068 18.4411 4.73179 18.599 4.61842V4.61934C18.761 4.50322 18.923 4.39214 19.0842 4.28748L19.0851 4.28657L19.2035 4.21038L19.2044 4.20945C19.4743 4.03825 19.7529 3.87485 20.0393 3.72062C20.3198 3.56961 20.6094 3.42687 20.9068 3.2933L20.9986 3.25199L21.0436 3.23225H21.0923C21.4879 3.23455 21.8772 3.24924 22.2599 3.27631C22.6446 3.30294 23.032 3.34379 23.4212 3.39657C24.4429 3.53657 25.455 3.7656 26.4446 4.08277C27.4214 4.39672 28.3756 4.79605 29.295 5.28167C29.8072 5.55202 30.3089 5.84991 30.7987 6.17396C31.2806 6.49298 31.7516 6.83903 32.2087 7.21175C32.4405 7.40037 32.6714 7.59866 32.9008 7.80618C33.1358 8.01822 33.3571 8.22796 33.5646 8.43593C33.772 8.64338 33.9823 8.86458 34.1939 9.09959C34.3899 9.31576 34.5776 9.53384 34.7566 9.75275C35.6388 10.1939 36.4884 10.7075 37.2966 11.289C38.1132 11.8766 38.8848 12.5311 39.6017 13.2489C40.0158 13.663 40.4105 14.0985 40.7846 14.5529C40.8993 14.692 41.0118 14.8329 41.1219 14.9752C40.69 13.5266 40.0979 12.1157 39.3474 10.7704C38.424 9.11658 37.2581 7.55965 35.8495 6.15101C34.4403 4.74235 32.8839 3.57604 31.2297 2.653C29.5199 1.69829 27.7036 1.00107 25.8378 0.561352C25.1888 0.408507 24.5361 0.286873 23.8825 0.19691C23.2238 0.106028 22.562 0.0463591 21.9001 0.0183603ZM15.0721 19.193C15.3337 18.7826 15.6183 18.3855 15.9258 18.0032C16.2319 17.6222 16.5596 17.2564 16.9081 16.908C17.2564 16.5601 17.6222 16.2324 18.0032 15.9258C18.2584 15.7202 18.521 15.5251 18.789 15.3401C18.3461 15.2121 17.8944 15.1102 17.4368 15.0363C16.8291 14.9376 16.2067 14.8871 15.5747 14.8871C15.4163 14.8871 15.2717 14.8894 15.1414 14.8949C15.0046 14.899 14.8595 14.9082 14.7076 14.9188C14.6039 14.927 14.5144 14.9349 14.4428 14.9413C14.3914 14.9463 14.3308 14.9532 14.2615 14.961C14.1155 15.1162 13.9732 15.2722 13.836 15.4292C13.6804 15.6072 13.5266 15.7904 13.3766 15.9777C12.7578 16.7488 12.2175 17.5607 11.7568 18.4025C11.2858 19.2631 10.8952 20.1573 10.5867 21.0725C10.4564 21.4594 10.3412 21.8477 10.2407 22.2379C10.1392 22.6313 10.0525 23.0283 9.97996 23.4267C9.91385 23.7921 9.85925 24.1644 9.81655 24.5416C9.77435 24.9184 9.74451 25.293 9.72752 25.6657C9.72198 25.7969 9.7174 25.9241 9.71466 26.0444C9.71237 26.1454 9.71097 26.2729 9.71097 26.4254C9.71097 26.5965 9.71326 26.7461 9.71651 26.8751C9.72014 27.0179 9.72656 27.1675 9.73439 27.3236C9.77384 28.0525 9.86014 28.7786 9.99371 29.4974C10.1259 30.2102 10.3058 30.9175 10.533 31.6138C10.6271 31.9044 10.7286 32.1894 10.8369 32.4703C10.9448 32.748 11.0618 33.028 11.1885 33.3066H11.188L11.2496 33.4429L11.289 33.5269C12.308 34.3187 13.4137 34.9787 14.5823 35.4956C15.5003 35.9018 16.4559 36.2203 17.4382 36.4462C17.2564 36.2818 17.0797 36.1143 16.9081 35.9431L16.9085 35.9422C16.6221 35.6562 16.3517 35.3606 16.0989 35.0591C15.8404 34.7497 15.5985 34.4344 15.3737 34.1117C15.2047 33.8693 15.0441 33.621 14.8921 33.3695C14.7411 33.1193 14.5975 32.8619 14.4616 32.5993C14.1422 31.9797 13.8732 31.3389 13.6547 30.6816C13.4339 30.0174 13.2659 29.3404 13.1521 28.6602V28.6592L13.1393 28.5803V28.5794C13.0997 28.3357 13.0672 28.0929 13.042 27.8505C13.0162 27.6077 12.997 27.363 12.9841 27.1166C12.9786 27.0078 12.9744 26.8912 12.9713 26.7705C12.968 26.6342 12.9662 26.5194 12.9662 26.4254L12.9671 26.4244L12.9676 26.2945V26.2927L12.9694 26.1623V26.1619C12.9873 25.259 13.0952 24.3571 13.2934 23.4712C13.4894 22.5955 13.774 21.7358 14.1463 20.9068C14.2803 20.6089 14.4239 20.3166 14.5772 20.0324C14.7288 19.7524 14.894 19.472 15.0721 19.193ZM19.1929 26.928C18.7826 26.6663 18.3856 26.3813 18.0032 26.0738C17.6222 25.7681 17.2564 25.4399 16.9081 25.092L16.9085 25.091C16.5574 24.7408 16.2296 24.375 15.9258 23.9977C15.7206 23.7421 15.5251 23.4795 15.3401 23.2115C15.2121 23.6544 15.1106 24.106 15.0358 24.5641C14.9376 25.1709 14.8871 25.7933 14.8871 26.4254C14.8871 26.5837 14.8894 26.7283 14.8944 26.8581C14.8995 26.9954 14.9078 27.1404 14.9188 27.2928H14.9192C14.927 27.3961 14.9344 27.4856 14.9412 27.5577C14.9463 27.6086 14.9527 27.6697 14.961 27.7386C15.1161 27.8845 15.2727 28.0272 15.4296 28.1645C15.6077 28.3205 15.7904 28.4738 15.9777 28.6235C16.7483 29.2417 17.5603 29.7824 18.4026 30.2433C19.2636 30.7146 20.1573 31.1048 21.072 31.4132C21.459 31.5441 21.8482 31.6588 22.2375 31.7594C22.6313 31.8608 23.0278 31.9475 23.4263 32.0201C23.7916 32.0866 24.1639 32.1412 24.5416 32.1834C24.918 32.2261 25.2935 32.256 25.6657 32.272C25.797 32.2784 25.9241 32.2826 26.0448 32.2854C26.1467 32.2872 26.2743 32.289 26.4253 32.289C26.5961 32.289 26.7466 32.2872 26.8756 32.2835C27.0179 32.2803 27.168 32.2738 27.3227 32.2656C28.0515 32.2261 28.7781 32.1403 29.4969 32.0067C30.2093 31.8741 30.9171 31.6937 31.6138 31.4669C31.9039 31.3728 32.1894 31.2714 32.4694 31.1631C32.748 31.0557 33.0271 30.9382 33.3071 30.8115V30.8124L33.442 30.7509L33.5265 30.7115C34.3183 29.693 34.9778 28.5868 35.4951 27.4177C35.9018 26.5006 36.2198 25.5441 36.4452 24.5623C36.2818 24.7436 36.1143 24.9207 35.9426 25.092C35.6594 25.3756 35.3643 25.6455 35.0586 25.9016C34.7502 26.1601 34.4339 26.4019 34.1113 26.6268L34.1107 26.6259C33.8624 26.799 33.6155 26.9596 33.37 27.1074C33.1194 27.2589 32.8623 27.4026 32.5988 27.5389C31.9796 27.8579 31.338 28.1269 30.6816 28.3453C30.0175 28.5661 29.3409 28.7336 28.6597 28.8484H28.6588L28.5803 28.8608H28.5794C28.3357 28.9002 28.0915 28.9328 27.8501 28.9585C27.6059 28.9838 27.3608 29.0035 27.1166 29.0159C27.0078 29.0214 26.8917 29.026 26.7696 29.0288C26.6337 29.032 26.519 29.0338 26.4253 29.0338L26.4244 29.0329H26.2945H26.2927L26.1628 29.0306H26.1614C25.2585 29.0132 24.3571 28.9048 23.4717 28.7065C22.5955 28.5105 21.7358 28.2265 20.9068 27.8542C20.609 27.7197 20.3165 27.5765 20.0329 27.4232C19.7525 27.2713 19.4715 27.1065 19.1929 26.928ZM26.9279 22.8071C26.6663 23.2169 26.3817 23.6149 26.0742 23.9968C25.7681 24.3777 25.4404 24.7436 25.0919 25.092C24.7436 25.4399 24.3773 25.7681 23.9963 26.0747C23.7416 26.2798 23.479 26.4745 23.2105 26.6599C23.6539 26.7884 24.1056 26.8894 24.5632 26.9642C25.1705 27.0624 25.7933 27.1129 26.4253 27.1129C26.5842 27.1129 26.7292 27.1101 26.86 27.1056C26.9954 27.1001 27.1395 27.0923 27.2924 27.0803H27.2933C27.3943 27.0734 27.4824 27.0661 27.5572 27.0592C27.6086 27.0537 27.6688 27.0473 27.7381 27.0394C27.8845 26.8844 28.0268 26.7274 28.164 26.5704C28.3196 26.3918 28.4729 26.2092 28.6234 26.0219C29.2422 25.2517 29.7825 24.4397 30.2432 23.597C30.7147 22.7364 31.1048 21.8423 31.4133 20.927C31.5436 20.5405 31.6593 20.1518 31.7589 19.7626C31.8608 19.3692 31.948 18.9717 32.02 18.5738C32.0862 18.2079 32.1412 17.8362 32.183 17.4589C32.2256 17.082 32.2555 16.707 32.2725 16.3343C32.283 16.0915 32.289 15.8377 32.289 15.5747C32.289 15.4035 32.2867 15.2534 32.2835 15.1249C32.2794 14.9816 32.2739 14.8325 32.2652 14.6769C32.2262 13.948 32.1403 13.2218 32.0067 12.5035C31.8736 11.7907 31.6942 11.0829 31.467 10.3857C31.3729 10.0961 31.271 9.81015 31.1631 9.53015C31.0548 9.252 30.9377 8.97289 30.812 8.6934L30.8124 8.69295L30.75 8.55753L30.711 8.47353C29.6925 7.68177 28.5858 7.02218 27.4177 6.50488C26.4997 6.09869 25.5436 5.78014 24.5618 5.55477C24.7431 5.71817 24.9203 5.88571 25.0919 6.05738C25.3751 6.34058 25.6451 6.63572 25.9011 6.94143C26.1596 7.24987 26.4019 7.56653 26.6264 7.88878L26.6259 7.88923C26.799 8.13709 26.9592 8.38451 27.1074 8.63008C27.2584 8.88068 27.4021 9.13815 27.5379 9.40116C27.8574 10.0203 28.1268 10.6615 28.3453 11.3184C28.5657 11.9826 28.7341 12.6591 28.8479 13.3403V13.3412L28.8607 13.4201V13.4211C28.8998 13.6644 28.9324 13.9076 28.9581 14.15C28.9843 14.3927 29.0035 14.6374 29.0159 14.8829C29.0214 14.9926 29.0256 15.1079 29.0287 15.2295C29.032 15.3654 29.0338 15.4801 29.0338 15.5747C29.0338 15.6316 29.0329 15.7211 29.0306 15.8381C29.0127 16.7414 28.9048 17.6433 28.7066 18.5283C28.5101 19.4045 28.226 20.2647 27.8538 21.0932C27.7197 21.3915 27.5761 21.683 27.4228 21.9671C27.2713 22.2476 27.106 22.5285 26.9279 22.8071ZM22.8075 15.0721C23.217 15.3342 23.6144 15.6188 23.9968 15.9262C24.3778 16.2324 24.7436 16.5601 25.0919 16.908C25.4404 17.2564 25.7681 17.6222 26.0742 18.0032C26.2794 18.2589 26.4749 18.521 26.6599 18.789C26.7879 18.3461 26.8899 17.8945 26.9637 17.4373C27.0624 16.8291 27.1125 16.2067 27.1125 15.5747C27.1125 15.4154 27.1106 15.2708 27.1056 15.1405C27.1005 15.005 27.0923 14.8605 27.0808 14.7072V14.7063C27.0735 14.6062 27.0661 14.5176 27.0588 14.4428C27.0542 14.3918 27.0473 14.3308 27.039 14.262C26.8839 14.1155 26.7273 13.9737 26.5704 13.836C26.3923 13.6799 26.2096 13.5266 26.0219 13.3765C25.2512 12.7578 24.4393 12.218 23.597 11.7567C22.7364 11.2858 21.8423 10.8957 20.9275 10.5868C20.5405 10.4564 20.1518 10.3412 19.7625 10.2407C19.3687 10.1392 18.9722 10.0525 18.5733 9.97993C18.2084 9.91388 17.8361 9.85922 17.4584 9.81703C17.0815 9.77433 16.7065 9.74448 16.3343 9.728C16.2026 9.72202 16.0754 9.71743 15.9547 9.71463C15.8542 9.71285 15.727 9.71145 15.5747 9.71145C15.2676 9.71145 14.9678 9.71922 14.6768 9.73487C13.948 9.77388 13.2214 9.85972 12.5026 9.99374C11.7902 10.1259 11.0829 10.3063 10.3862 10.5331C10.0961 10.6271 9.81056 10.7286 9.53063 10.8369C9.25196 10.9452 8.97247 11.0623 8.69336 11.188H8.69292L8.5575 11.25L8.47356 11.289C7.68174 12.308 7.0217 13.4142 6.50446 14.5828C6.09823 15.5003 5.77968 16.456 5.55432 17.4382C5.71358 17.2615 5.88158 17.0847 6.05737 16.909L6.0583 16.908C6.3447 16.6217 6.63937 16.3517 6.94095 16.0993C7.24984 15.8404 7.56611 15.5985 7.88875 15.3736C8.13069 15.2047 8.37849 15.0445 8.63049 14.8926C8.88064 14.7416 9.13818 14.5979 9.40119 14.4616C10.0204 14.1426 10.6616 13.8731 11.3179 13.6547C11.9825 13.4344 12.6591 13.2664 13.3403 13.1521H13.3412L13.4197 13.1392H13.4201C13.6643 13.0998 13.9072 13.0676 14.1495 13.0424V13.0419C14.3928 13.0162 14.6374 12.9969 14.883 12.9845C14.9922 12.9791 15.1084 12.9745 15.23 12.9712C15.3663 12.968 15.4806 12.9662 15.5747 12.9662C15.6362 12.9662 15.722 12.9671 15.8386 12.9694C16.7415 12.9868 17.6434 13.0956 18.5283 13.2935C19.4045 13.4894 20.2647 13.774 21.0932 14.1463C21.3916 14.2807 21.683 14.424 21.9671 14.5773C22.248 14.7287 22.528 14.894 22.8075 15.0721ZM7.21178 9.79132C7.4004 9.56 7.59869 9.32862 7.80615 9.0987C8.01774 8.86413 8.22799 8.64287 8.43545 8.43542C8.64245 8.22841 8.86416 8.01822 9.09866 7.80618C9.31535 7.61063 9.53381 7.4229 9.75227 7.24344C10.1934 6.36123 10.707 5.51163 11.2886 4.70333C11.8765 3.88678 12.5311 3.11521 13.2485 2.3978L13.2489 2.39825C13.6634 1.98424 14.099 1.58905 14.5529 1.21543C14.6925 1.10068 14.8334 0.988218 14.9752 0.878064C13.5262 1.30998 12.1152 1.90208 10.7699 2.653C9.11661 3.57604 7.55968 4.74235 6.15055 6.15055C4.74235 7.55921 3.57604 9.11658 2.65254 10.7704C1.69829 12.4801 1.00107 14.2968 0.561352 16.1622C0.408507 16.8112 0.286873 17.4639 0.19691 18.1175C0.106028 18.7766 0.046359 19.438 0.0183603 20.0999L0.0100976 20.3129L0.00918012 20.3455C0.00275419 20.5456 0 20.7645 0 20.9995C0 21.2327 0.00275444 21.4489 0.00872136 21.6472L0.0436052 21.7358L0.0431465 21.7367L0.0922581 21.8588H0.0927169C0.294676 22.3563 0.518207 22.8392 0.761473 23.3065C1.00704 23.7769 1.27601 24.2359 1.5661 24.6834C1.88786 25.1773 2.23302 25.6533 2.59976 26.1068C2.96145 26.5552 3.34792 26.9853 3.75597 27.3934H3.75551C4.04926 27.6876 4.35221 27.9689 4.66065 28.2352C4.97368 28.5059 5.29407 28.7625 5.62041 29.0054C6.06197 29.3335 6.51592 29.6374 6.98085 29.916C7.39951 30.167 7.82772 30.3993 8.2642 30.6109C8.1256 30.0083 8.01684 29.3969 7.93883 28.7795C7.84655 28.047 7.79654 27.3057 7.79145 26.558C7.50273 26.3528 7.21865 26.1339 6.94139 25.9007C6.63937 25.6487 6.3447 25.3779 6.0583 25.092L6.05737 25.091C5.86001 24.8941 5.67228 24.6949 5.4951 24.4962C5.31472 24.2933 5.14076 24.0854 4.9746 23.8738C4.85068 23.7168 4.7318 23.5594 4.61842 23.4015C4.50872 23.2482 4.3981 23.0866 4.28703 22.9154L4.28611 22.9145L4.20991 22.796L4.20946 22.7956C4.03779 22.5257 3.87485 22.2476 3.72109 21.9616C3.56962 21.6811 3.4264 21.3906 3.29284 21.0932L3.25199 21.0014L3.23225 20.9568V20.9073C3.23409 20.5125 3.24878 20.1229 3.27586 19.74C3.30294 19.3554 3.34333 18.9685 3.39657 18.5784C3.53657 17.5566 3.76561 16.5441 4.08278 15.5549C4.39627 14.5782 4.79605 13.6244 5.28167 12.705C5.55156 12.1928 5.84945 11.6911 6.1735 11.2014C6.49295 10.7194 6.83906 10.2489 7.21178 9.79132ZM38.7067 20.9068L38.748 20.9986L38.7678 21.0436V21.0932C38.7654 21.4884 38.7512 21.8781 38.7237 22.2609C38.6971 22.6455 38.6567 23.0329 38.6034 23.4212C38.4634 24.443 38.2344 25.455 37.9172 26.4451C37.6037 27.4214 37.2039 28.3761 36.7183 29.2959C36.448 29.8077 36.1501 30.3098 35.8261 30.7991C35.5071 31.2815 35.1609 31.752 34.7883 32.2091C34.5996 32.4405 34.4013 32.6709 34.1943 32.9004H34.1953C33.9887 33.129 33.7784 33.3506 33.5646 33.5646H33.5637C33.3502 33.778 33.1294 33.9878 32.9008 34.1943V34.1948C32.6902 34.3852 32.4722 34.5725 32.2472 34.757C31.8062 35.6392 31.2925 36.4893 30.711 37.2967C30.1235 38.1137 29.4689 38.8843 28.7515 39.6027C28.3407 40.013 27.9047 40.4077 27.4471 40.7841C27.3075 40.8989 27.1671 41.0118 27.0248 41.1219C28.4734 40.69 29.8848 40.0984 31.2297 39.347C32.8834 38.4244 34.4403 37.2581 35.8495 35.8499C37.2576 34.4408 38.424 32.8834 39.347 31.2301C40.3017 29.5199 40.9989 27.7036 41.4387 25.8378C41.5915 25.1888 41.7131 24.5366 41.8031 23.883C41.894 23.2238 41.9537 22.5624 41.9817 21.9006L41.9899 21.6871L41.9908 21.6559V21.655C41.9968 21.4544 42 21.2355 42 20.9995C42 20.7678 41.9973 20.5516 41.9908 20.3523L41.956 20.2638H41.9564L41.9077 20.1417H41.9073C41.7053 19.6441 41.4818 19.1608 41.2385 18.694C40.993 18.2235 40.724 17.7641 40.4335 17.317C40.1122 16.8231 39.767 16.3471 39.4007 15.8932C39.0381 15.4448 38.6521 15.0147 38.2435 14.6071C37.9457 14.3083 37.6432 14.0274 37.3384 13.7644C37.0259 13.4945 36.706 13.2375 36.3796 12.9951C35.9381 12.6674 35.4836 12.3635 35.0186 12.0845C34.6 11.8329 34.1714 11.6011 33.7353 11.3891C33.874 11.9917 33.9827 12.6036 34.0607 13.2209C34.1534 13.9535 34.2035 14.6957 34.2081 15.4429C34.5009 15.6504 34.7846 15.8698 35.0591 16.0998C35.3643 16.355 35.6599 16.6248 35.9426 16.908C36.1354 17.1004 36.3231 17.2996 36.5054 17.5047C36.6857 17.7076 36.8593 17.9151 37.0254 18.1258C37.1498 18.2832 37.2686 18.442 37.382 18.5999L37.3816 18.6008C37.4972 18.7619 37.6079 18.9235 37.7125 19.0846L37.7135 19.0855L37.7896 19.204L37.7905 19.2049C37.9618 19.4738 38.1252 19.7529 38.2789 20.0389C38.4304 20.3193 38.5731 20.6089 38.7067 20.9068ZM21.0932 38.7072L21.0014 38.748L20.9564 38.7677H20.9073C20.5121 38.7659 20.1219 38.7508 19.7391 38.7242C19.3545 38.6971 18.9676 38.6566 18.5783 38.603C17.5571 38.4639 16.545 38.2344 15.5554 37.9173C14.5786 37.6042 13.6239 37.2044 12.7046 36.7188C12.1928 36.4489 11.6906 36.151 11.2013 35.8265C10.7194 35.5075 10.2484 35.1614 9.79128 34.7883C9.55952 34.6001 9.3282 34.4013 9.09866 34.1943C8.87059 33.9878 8.64933 33.778 8.43634 33.5646H8.43545C8.22799 33.3566 8.01774 33.1354 7.8057 32.9004H7.80475C7.61473 32.6906 7.42751 32.4721 7.24296 32.2477C6.36123 31.8057 5.51117 31.293 4.70334 30.7115C3.88678 30.1239 3.11521 29.469 2.3978 28.7515C1.98654 28.3412 1.59226 27.9042 1.21588 27.447C1.10113 27.3075 0.988222 27.1666 0.878061 27.0248C1.30997 28.4738 1.90163 29.8848 2.65254 31.2301C3.57604 32.8834 4.74189 34.4408 6.15055 35.8499C7.55924 37.2581 9.1161 38.4235 10.7699 39.347C12.4801 40.3017 14.2968 40.9994 16.1622 41.4386C16.8112 41.5919 17.4639 41.7136 18.117 41.8035C18.7762 41.894 19.438 41.9541 20.0999 41.9816L20.3129 41.9899L20.3441 41.9908C20.5451 41.9972 20.7641 42.0005 20.9996 42.0005C21.2323 42.0005 21.4489 41.9972 21.6472 41.9918L21.7367 41.9568L21.8579 41.9073C22.3559 41.7058 22.8397 41.4813 23.306 41.2385C23.7765 40.993 24.2364 40.724 24.6825 40.4334C25.1773 40.1126 25.6528 39.7674 26.1068 39.4007C26.5557 39.0385 26.9849 38.6521 27.3934 38.2445C27.6912 37.9457 27.9721 37.6437 28.2351 37.3389C28.5055 37.0268 28.7621 36.7059 29.0049 36.3796C29.3331 35.9376 29.6369 35.4832 29.916 35.0187C30.1671 34.6001 30.3989 34.1718 30.6114 33.7358C30.0078 33.8739 29.3964 33.9827 28.7791 34.0612C28.047 34.1539 27.3048 34.2031 26.5576 34.2085C26.3523 34.4972 26.1339 34.7814 25.9011 35.0591C25.6483 35.3606 25.3779 35.6562 25.0915 35.9422L25.0919 35.9431C24.8996 36.1349 24.7005 36.3232 24.4952 36.5054C24.2929 36.6853 24.0853 36.8592 23.8743 37.0258C23.725 37.1424 23.5667 37.2618 23.4001 37.382V37.383C23.2477 37.4922 23.0857 37.6024 22.9158 37.713L22.9149 37.7134L22.7961 37.7901L22.7951 37.7906C22.5257 37.9622 22.2471 38.1252 21.9616 38.2794C21.6807 38.4309 21.391 38.5736 21.0932 38.7072Z" fill="#00ADFF"/>
</g>
<defs>
<clipPath id="clip0_695_1774">
<rect width="42" height="42" fill="white"/>
</clipPath>
</defs>
</svg>
