<?xml version="1.0" encoding="UTF-8"?>
<svg xmlns="http://www.w3.org/2000/svg" viewBox="0 0 122.88 150.84">
  <defs>
    <style>
      .cls-1 {
        fill: #76767c;
        mix-blend-mode: screen;
        opacity: .44;
      }

      .cls-2 {
        fill: #fdfdfd;
      }

      .cls-3 {
        fill: #443f48;
      }

      .cls-4 {
        fill: #27272b;
      }

      .cls-5 {
        isolation: isolate;
      }

      .cls-6 {
        fill: #77cffc;
        opacity: .8;
      }
    </style>
  </defs>
  <g class="cls-5">
    <g id="Layer_2" data-name="Layer 2">
      <g id="Layer_1-2" data-name="Layer 1">
        <path class="cls-3" d="M122.34,138.7c0,.83-.42,1.65-1.22,2.43-2.37,2.33-8.08,4.41-16.09,6.04-2.23,.46-4.65,.87-7.22,1.26-.84,.13-1.71,.25-2.58,.37-1.42,.18-2.88,.36-4.38,.53-3.25,.36-6.68,.66-10.26,.9-6.05,.4-12.52,.61-19.24,.61-23,0-43.03-2.53-53.42-6.28-.74-.26-1.42-.53-2.06-.81-.49-.21-.95-.43-1.38-.64-2.68-1.36-4.14-2.85-4.14-4.4l9.42-20.94H112.92l1.79,3.97,.63,1.41,.25,.55,2,4.43,4.76,10.59Z"/>
        <path class="cls-4" d="M115.59,123.68c-3.85,3.31-8.94,4.86-13.9,6.08-23.66,5.82-48.61,6.3-72.48,1.38-5.01-1.04-10.39-2.27-15.08-.22-4.35,1.9-6.93,6.16-8.74,10.35-.25,.58-.54,1.26-.91,1.84-2.68-1.36-4.14-2.85-4.14-4.4l9.42-20.94H112.92l1.79,3.97,.63,1.41,.25,.55Z"/>
        <path class="cls-1" d="M97.81,148.43c-.84,.13-1.71,.25-2.58,.37-1.42,.18-2.88,.36-4.38,.53-3.25,.36-6.68,.66-10.26,.9l-5.12-27.54,12.3-3.92,10.04,29.67Z"/>
        <path class="cls-4" d="M122.34,138.7c0,4.57-12.72,8.56-31.5,10.62,3.42-.66,6.82-1.44,10.18-2.35,3.39-.91,6.78-1.95,9.79-3.74,3.02-1.79,5.67-4.39,6.91-7.67,.59-1.55,.82-3.25,.65-4.91-.08-.77-.5-1.68-.79-2.55l4.76,10.59Z"/>
        <ellipse class="cls-3" cx="61.4" cy="118.19" rx="51.64" ry="12.56"/>
        <circle class="cls-6" cx="61.44" cy="61.44" r="61.44"/>
        <path class="cls-2" d="M98.63,63.68c0,1.09-.55,1.84-1.88,2.33-2.66,.98-5.25,2.1-7.76,3.41-5.37,2.79-10.14,6.39-14.2,10.88-4.3,4.75-7.51,10.18-9.86,16.13-.41,1.03-.76,2.09-1.19,3.11-.41,.99-1.21,1.5-2.25,1.54-1.07,.04-1.93-.45-2.4-1.42-.88-1.81-1.67-3.66-2.53-5.48-2.23-4.71-4.53-9.36-7.74-13.51-2.37-3.06-5.23-5.58-8.52-7.63-4.35-2.7-9.02-4.72-13.74-6.65-.48-.2-.97-.37-1.37-.7-1.47-1.24-1.19-3.51,.56-4.32,1.15-.52,2.36-.9,3.53-1.38,4.1-1.67,7.97-3.75,11.58-6.33,4.55-3.24,8.4-7.15,11.62-11.7,2.79-3.95,4.97-8.24,6.67-12.77,.67-1.78,2.41-2.38,3.95-1.4,.56,.35,.84,.9,1.06,1.49,1.95,5.16,4.52,9.98,7.91,14.34,3.96,5.09,8.73,9.28,14.31,12.53,3.13,1.82,6.39,3.4,9.81,4.61,.38,.14,.76,.29,1.12,.48,.9,.47,1.35,1.22,1.32,2.43Z"/>
        <circle class="cls-2" cx="89.01" cy="36.64" r="6.48"/>
      </g>
    </g>
  </g>
</svg>